<svg xmlns="http://www.w3.org/2000/svg" width="96" height="96" viewBox="0 0 96 96" fill="none">
  <defs>
    <linearGradient id="g" x1="14" y1="10" x2="84" y2="88" gradientUnits="userSpaceOnUse">
      <stop stop-color="#47B7FF"/>
      <stop offset="1" stop-color="#7C5CFF"/>
    </linearGradient>
  </defs>
  <rect x="10" y="10" width="76" height="76" rx="22" fill="url(#g)"/>
  <rect x="26" y="26" width="44" height="44" rx="18" stroke="rgba(255,255,255,.8)" stroke-width="2" fill="rgba(255,255,255,.08)"/>
  <path d="M48 32c1.3 0 2.4 1.1 2.4 2.4v11.2h11.2c1.3 0 2.4 1.1 2.4 2.4s-1.1 2.4-2.4 2.4H50.4v11.2c0 1.3-1.1 2.4-2.4 2.4s-2.4-1.1-2.4-2.4V52.4H34.4c-1.3 0-2.4-1.1-2.4-2.4s1.1-2.4 2.4-2.4h11.2V34.4C45.6 33.1 46.7 32 48 32z" fill="rgba(255,255,255,.92)"/>
</svg>


